<?xml version="1.0" encoding="UTF-8"?>
<svg viewBox="0 0 136 136" xmlns="http://www.w3.org/2000/svg">
 <defs>
  <filter id="d">
   <feGaussianBlur stdDeviation="1.26"/>
  </filter>
  <filter id="c">
   <feGaussianBlur stdDeviation="1.55"/>
  </filter>
  <filter id="b">
   <feGaussianBlur stdDeviation=".9075"/>
  </filter>
  <linearGradient id="a" x1="-344.15" x2="-395.85" y1="274.71" y2="425.4" gradientTransform="matrix(-.59146 0 0 .59146 350.31 149.56)" gradientUnits="userSpaceOnUse">
   <stop stop-color="#fff" offset="0"/>
   <stop stop-color="#fff" stop-opacity="0" offset="1"/>
  </linearGradient>
 </defs>
 <g transform="translate(-515.34 -300.49)">
  <path transform="matrix(1.0299 0 0 1.0299 -17.446 -38.817)" d="m536.97 332.47h92.711a16.645 16.645 0 0 1 16.645 16.645v92.711a16.645 16.645 0 0 1 -16.645 16.645h-92.711a16.645 16.645 0 0 1 -16.645 -16.645v-92.711a16.645 16.645 0 0 1 16.645 -16.645" fill="#f00" filter="url(#d)"/>
  <path d="m537.5 305.51h91.669a17.143 17.143 0 0 1 17.143 17.143v91.669a17.143 17.143 0 0 1 -17.143 17.143h-91.669a17.143 17.143 0 0 1 -17.143 -17.143v-91.669a17.143 17.143 0 0 1 17.143 -17.143" fill="#f00" opacity=".8" stroke="#800000" stroke-width="2"/>
  <path transform="matrix(.99964 0 0 .99964 .94371 -26.118)" d="m617.79 338.47h-65.894c-16.383 0-25.573 9.1895-25.573 25.573v63.898c0.5303 12.789 2.5702 4.7039 6.453-9.4586 4.5126-16.46 19.209-30.846 37.107-41.627 13.661-8.2291 28.951-13.484 56.784-13.984 15.785-0.28349 14.391-20.321-8.8767-24.401z" fill="url(#a)" fill-rule="evenodd" filter="url(#c)"/>
  <path transform="matrix(1.0575 0 0 1.0573 119.99 56.436)" d="m431.5 297.46c-0.0491 5.2762 2.894 9.4072 7.9243 8.9698s6.3857-4.5522 6.3971-9.2956-1.11-8.4151-6.4627-9.1904-7.8095 4.2402-7.8587 9.5163zm16.884 6.1589c-0.65615 1.6604-0.79705 6.5372-4.2325 7.9498-1.4544 0.92372-4.2462 1.3856-6.1926 1.3856-3.7617 1e-5 -6.8181-1.4557-9.1691-4.3672s-3.5266-6.7057-3.5266-11.383 1.181-8.4771 3.543-11.4 5.4129-4.3847 9.1527-4.3847c1.9464 3e-5 4.7382 0.46774 6.1926 1.4031s2.5096 2.2333 3.1657 3.8937c-0.38277-2.6105 2.2816-4.5048 3.8091-3.699s1.9084 5.2608 1.9073 10.275-0.33181 9.3532 1.7494 11.346 4.2346-0.0491 5.7875-2.3994 2.3291-5.3611 2.3292-9.0326c-6e-5 -2.3385-0.31717-4.5309-0.95136-6.5771s-1.5966-3.9229-2.8869-5.63c-2.0777-2.853-4.6748-5.0512-7.7913-6.5947s-6.49-2.3151-10.12-2.3151c-2.537 4e-5 -4.9646 0.35667-7.2828 1.0699s-4.4616 1.7598-6.4299 3.1395c-3.2368 2.2918-5.7574 5.2559-7.5616 8.8923s-2.7065 7.571-2.7064 11.804c-1e-5 3.4844 0.58501 6.7525 1.7551 9.8043s2.8595 5.747 5.0684 8.0855c2.187 2.2918 4.6966 4.0398 7.5288 5.2442s5.8557 1.8065 9.0707 1.8065c2.7556 0 5.5113-0.54956 8.267-1.6487 0 0 5.5685-2.9228 6.9796 0.50473s-5.3557 5.9321-5.3557 5.9321c-3.2259 1.2043-6.501 1.8065-9.8252 1.8065-4.046-1e-5 -7.8624-0.76587-11.449-2.2976s-6.7798-3.7592-9.5792-6.6824-4.9318-6.3082-6.3971-10.155-2.198-7.9802-2.198-12.4c-1e-5 -4.2561 0.74358-8.3134 2.2308-12.172s3.6086-7.2494 6.3642-10.173c2.7556-2.8997 5.9651-5.1447 9.6284-6.735s7.4632-2.3852 11.4-2.3853c4.8989 5e-5 9.3495 0.99977 13.352 2.9992s7.3484 4.8817 10.038 8.6467c1.6402 2.2918 2.8814 4.7765 3.7234 7.4541s1.263 5.4897 1.263 8.4362c-7e-5 6.3374-1.7825 11.26-5.3473 14.768s-5.9743 4.8004-9.2234 4.1211c-4.1334-0.86418-6.0797-6.4863-6.0797-8.335z" fill="#37abc8" filter="url(#b)" opacity=".5" stroke="#37abc8" stroke-width="3.7828"/>
  <path d="m574.31 368.94c-0.0519 5.5786 3.0605 9.9465 8.3801 9.484s6.753-4.8131 6.765-9.8285-1.1738-8.8975-6.8344-9.7173-8.2587 4.4832-8.3107 10.062zm17.856 6.512c-0.69389 1.7555-0.8429 6.912-4.4759 8.4055-1.5381 0.97666-4.4904 1.465-6.5488 1.465-3.9781 1e-5 -7.2102-1.5392-9.6965-4.6176s-3.7294-7.0901-3.7294-12.035 1.2489-8.9631 3.7468-12.054 5.7242-4.6361 9.6792-4.6361c2.0584 2e-5 5.0107 0.49455 6.5488 1.4835s2.6539 2.3614 3.3478 4.1169c-0.40478-2.7601 2.4128-4.763 4.0282-3.9111s2.0182 5.5624 2.017 10.864-0.35089 9.8893 1.85 11.996 4.4782-0.0519 6.1204-2.5369c1.642-2.4849 2.4631-5.6684 2.4632-9.5504-5e-5 -2.4726-0.33541-4.7906-1.0061-6.9542s-1.6884-4.1477-3.0529-5.9528c-2.1972-3.0165-4.9437-5.3408-8.2394-6.9727s-6.8633-2.4478-10.703-2.4479c-2.6829 5e-5 -5.2501 0.37712-7.7017 1.1312s-4.7182 1.8607-6.7997 3.3194c-3.423 2.4232-6.0885 5.5572-7.9966 9.402s-2.8621 8.005-2.8621 12.48c-1e-5 3.6842 0.61866 7.1396 1.856 10.366s3.024 6.0764 5.36 8.549c2.3128 2.4232 4.9668 4.2714 7.9619 5.5448s6.1925 1.9101 9.5924 1.9101c2.9141 0 5.8283-0.58106 8.7424-1.7432 0 0 5.8888-3.0903 7.381 0.53366s-5.6637 6.2721-5.6637 6.2721c-3.4114 1.2734-6.8749 1.9101-10.39 1.9101-4.2787-1e-5 -8.3146-0.80978-12.108-2.4293s-7.1698-3.9747-10.13-7.0654-5.2154-6.6698-6.765-10.737-2.3244-8.4377-2.3244-13.111c-1e-5 -4.5001 0.78635-8.79 2.3591-12.87s3.8161-7.665 6.7303-10.756c2.9141-3.066 6.3082-5.4396 10.182-7.121s7.8925-2.522 12.056-2.522c5.1807 5e-5 9.8873 1.0571 14.12 3.1711s7.771 5.1616 10.616 9.1424c1.7346 2.4232 3.0471 5.0503 3.9376 7.8814s1.3356 5.8044 1.3357 8.9199c-7e-5 6.7008-1.885 11.906-5.6548 15.614s-6.3179 5.0756-9.754 4.3573c-4.3711-0.91372-6.4294-6.8581-6.4294-8.8129z" fill="#fff" stroke="#fff" stroke-width="2"/>
 </g>
</svg>
